<svg width="1440" height="720" viewBox="0 0 1440 720" fill="none" xmlns="http://www.w3.org/2000/svg">
<path opacity="0.6" d="M125.7 590.641C124.356 590.068 123.012 589.496 121.667 588.923C123.168 589.802 124.66 590.721 126.164 591.586C127.766 592.39 129.351 593.221 130.965 594.008C129.209 592.888 127.45 591.778 125.7 590.641ZM543.618 313.929C544.218 311.066 544.777 308.083 545.356 305.189C545.597 301.89 545.776 298.435 545.976 295.031C545.504 298.426 545.058 301.902 544.557 305.214C544.241 308.106 543.948 311.069 543.618 313.929ZM541.526 323.635C541.741 322.684 541.972 321.785 542.181 320.826C542.317 319.724 542.424 318.536 542.552 317.411C542.213 319.481 541.874 321.576 541.526 323.635ZM105.964 580.297C104.359 579.679 102.777 579.023 101.175 578.39C103.061 579.438 104.965 580.446 106.859 581.477C108.099 582.049 109.348 582.622 110.591 583.195C109.041 582.241 107.508 581.253 105.964 580.297ZM115.406 583.824C113.378 583.074 111.35 582.324 109.339 581.56C111.817 583.074 114.308 584.554 116.797 586.037C118.559 586.825 120.329 587.575 122.102 588.328C119.859 586.85 117.64 585.319 115.406 583.821V583.824ZM540.996 334.909C541.938 331.76 542.813 328.436 543.725 325.206C544.163 320.191 544.655 315.321 545.055 310.205C544.328 313.786 543.624 317.436 542.862 320.921C542.28 325.69 541.622 330.248 540.996 334.906V334.909ZM537.606 345.554C538.322 343.286 539.055 341.087 539.762 338.788C540.286 334.998 540.828 331.256 541.344 327.434C540.854 329.593 540.344 331.691 539.852 333.83C539.139 337.835 538.354 341.64 537.606 345.551V345.554ZM535.199 353.106C535.384 352.534 535.564 351.961 535.746 351.388L535.978 350.243C535.726 351.211 535.451 352.118 535.199 353.103V353.106ZM76.2876 567.062L75.4705 566.758C76.0703 567.027 76.6613 567.302 77.261 567.568C76.9394 567.397 76.6091 567.233 76.2876 567.062ZM85.7268 570.388C84.2289 569.873 82.7253 569.366 81.239 568.84C82.9773 569.744 84.7157 570.666 86.4714 571.559C88.1808 572.286 89.8728 573.039 91.5909 573.755C89.6352 572.63 87.6709 571.531 85.7268 570.388ZM95.2878 573.618C93.2887 572.971 91.3069 572.304 89.3223 571.634C91.6836 573.002 94.0506 574.368 96.4264 575.711C98.4912 576.552 100.562 577.389 102.638 578.221C100.193 576.687 97.7273 575.181 95.2936 573.618H95.2878ZM104.797 576.635C102.531 575.927 100.272 575.211 98.0199 574.485C100.775 576.237 103.551 577.961 106.323 579.676C108.496 580.518 110.684 581.316 112.871 582.121C110.183 580.297 107.485 578.491 104.802 576.635H104.797ZM538.487 352.891C539.692 349.954 540.866 346.916 542.045 343.899C542.543 339.032 542.958 333.947 543.386 328.9C542.416 332.269 541.436 335.622 540.434 338.906C539.808 343.613 539.177 348.339 538.493 352.891H538.487ZM534.115 363.112C535.228 360.51 536.357 357.959 537.458 355.299C538.084 351.254 538.635 346.997 539.197 342.777C538.281 345.723 537.348 348.611 536.415 351.506C535.665 355.405 534.92 359.336 534.121 363.112H534.115ZM529.685 373.465C530.746 371.103 531.76 368.598 532.805 366.173C533.423 363.324 533.985 360.312 534.544 357.338C533.675 359.914 532.823 362.491 531.951 365.036C531.206 367.836 530.485 370.728 529.691 373.465H529.685ZM526.472 380.296C526.956 379.259 527.451 378.269 527.921 377.224C528.323 375.844 528.709 374.409 529.08 372.987C528.237 375.429 527.367 377.885 526.478 380.296H526.472ZM56.6326 558.676C56.2617 558.561 55.888 558.453 55.5171 558.335C56.2646 558.636 57.0208 558.931 57.7683 559.231L56.6326 558.676ZM66.2167 561.622C64.4349 561.089 62.6762 560.531 60.9031 559.99C62.9747 560.978 65.0636 561.946 67.1496 562.919C68.6388 563.492 70.1483 564.035 71.6461 564.594C69.8209 563.617 68.0275 562.613 66.2167 561.622ZM75.5256 564.265C73.4395 563.692 71.3535 563.102 69.2849 562.501C71.7398 563.837 74.2035 565.159 76.6758 566.466C78.6923 567.199 80.7204 567.919 82.76 568.625C80.3292 567.19 77.9332 565.725 75.5256 564.265ZM84.8692 566.79C82.6074 566.206 80.3524 565.607 78.1041 564.995C80.7696 566.601 83.4293 568.213 86.1122 569.787C88.4502 570.592 90.7767 571.416 93.1264 572.198C90.3624 570.417 87.6158 568.605 84.8692 566.79ZM94.2129 569.183C91.7995 568.59 89.415 567.955 87.0161 567.342C89.8902 569.229 92.7556 571.147 95.6499 572.999C98.0604 573.787 100.485 574.548 102.91 575.29C100.002 573.284 97.1024 571.248 94.2129 569.183ZM535.596 370.493C537.044 367.916 538.467 365.302 539.889 362.651C540.538 357.229 541.231 351.918 541.828 346.358C540.611 349.433 539.376 352.456 538.136 355.454C537.331 360.593 536.444 365.497 535.596 370.502V370.493ZM530.38 379.612C531.786 377.178 533.191 374.744 534.581 372.259C535.41 367.49 536.276 362.812 537.064 357.945C535.879 360.773 534.68 363.553 533.478 366.327C532.481 370.879 531.409 375.191 530.38 379.62V379.612ZM525.09 388.673C526.461 386.4 527.811 384.058 529.167 381.73C530.099 377.794 531.041 373.883 531.957 369.895C530.841 372.425 529.723 374.948 528.59 377.427C527.454 381.269 526.252 384.919 525.09 388.681V388.673ZM520.165 396.56C521.324 394.702 522.483 392.876 523.641 390.986C524.589 387.96 525.533 384.914 526.478 381.873C525.638 383.674 524.789 385.443 523.943 387.218C522.717 390.425 521.425 393.437 520.171 396.569L520.165 396.56ZM516.03 403.185C516.711 402.129 517.372 401.018 518.058 399.953C518.426 399.054 518.789 398.135 519.156 397.242C518.131 399.292 517.068 401.187 516.036 403.194L516.03 403.185ZM36.9225 551.267L35.2914 550.849C36.4126 551.241 37.5223 551.647 38.6522 552.034C38.0698 551.782 37.502 551.521 36.9225 551.267ZM46.3908 553.617C44.6524 553.208 42.914 552.798 41.2134 552.372C43.2125 553.231 45.229 554.089 47.2454 554.925C49.0041 555.498 50.7482 556.099 52.5185 556.669C50.4672 555.659 48.4246 554.642 46.3908 553.617ZM55.8126 555.824C53.5991 555.326 51.4117 554.802 49.2156 554.284C51.771 555.564 54.3669 556.807 56.9484 558.06C59.0402 558.713 61.1436 559.352 63.247 559.993C60.7592 558.615 58.2811 557.225 55.8126 555.824ZM65.0607 557.829C62.7178 557.334 60.3806 556.831 58.0493 556.32C60.8712 557.912 63.7221 559.469 66.5701 561.026C68.7981 561.682 71.0522 562.309 73.3063 562.939C70.5462 561.242 67.7976 559.535 65.0607 557.817V557.829ZM74.2479 559.664C71.8432 559.206 69.4384 558.75 67.0627 558.261C69.987 560.082 72.9287 561.884 75.8877 563.669C78.2809 564.33 80.6769 564.995 83.0874 565.633C80.1264 563.656 77.1799 561.662 74.2479 559.652V559.664ZM83.4177 561.381C80.9318 560.937 78.4586 560.478 75.9978 560.004C79.0631 562.083 82.1429 564.144 85.2372 566.188C87.7027 566.83 90.1625 567.477 92.6484 568.095C89.5541 565.871 86.4888 563.617 83.4177 561.367V561.381ZM532.73 387.027C534.402 384.819 536.079 382.638 537.74 380.379C538.441 375.28 539.032 369.886 539.658 364.578C538.209 367.266 536.723 369.855 535.254 372.48C534.428 377.364 533.622 382.308 532.73 387.015V387.027ZM526.834 394.676C528.501 392.545 530.163 390.389 531.82 388.209C532.69 383.711 533.446 378.936 534.242 374.249C532.776 376.849 531.306 379.425 529.83 381.979C528.845 386.231 527.877 390.557 526.834 394.665V394.676ZM520.904 402.146C522.538 400.127 524.167 398.087 525.791 396.028C526.779 392.18 527.686 388.1 528.616 384.086C527.185 386.517 525.736 388.888 524.29 391.267C523.175 394.917 522.083 398.619 520.904 402.134V402.146ZM515.077 409.157C516.613 407.322 518.151 405.493 519.678 403.623C520.767 400.374 521.802 396.961 522.848 393.577C521.465 395.824 520.077 398.049 518.684 400.254C517.491 403.24 516.308 406.266 515.077 409.146V409.157ZM509.323 416.029C510.717 414.422 512.09 412.742 513.475 411.101C514.521 408.679 515.547 406.177 516.566 403.658C515.329 405.579 514.081 407.448 512.832 409.329C511.667 411.551 510.514 413.835 509.335 416.003L509.323 416.029ZM504.957 420.896C505.699 420.06 506.443 419.255 507.182 418.413C507.944 417.042 508.712 415.685 509.462 414.279C507.961 416.469 506.472 418.714 504.957 420.876V420.896ZM17.7948 545.163C16.9952 545.014 16.2158 544.854 15.4191 544.702C17.0184 545.166 18.6263 545.626 20.243 546.082C19.4289 545.775 18.6032 545.472 17.7948 545.163ZM26.9588 546.8C25.1539 546.483 23.3431 546.168 21.5555 545.838C23.5835 546.606 25.6116 547.384 27.6687 548.129C29.5171 548.631 31.3752 549.123 33.243 549.606C31.1425 548.69 29.0362 547.757 26.9588 546.8ZM36.1345 548.338C33.9963 548 31.8581 547.659 29.7605 547.299C32.2348 548.415 34.709 549.537 37.2093 550.634C39.4286 551.206 41.645 551.779 43.8875 552.317C41.2916 551.006 38.6927 549.689 36.1345 548.346V548.338ZM45.2927 549.769C42.9575 549.426 40.6571 549.062 38.3393 548.699C41.1052 550.14 43.8875 551.571 46.6863 552.993C49.0591 553.566 51.4291 554.138 53.8222 554.682C50.9887 553.05 48.1088 551.433 45.2927 549.775V549.769ZM54.4364 551.095C51.994 550.76 49.5719 550.408 47.1556 550.056C50.1224 551.793 53.1211 553.491 56.1226 555.209C58.5303 555.747 60.964 556.263 63.3977 556.775C60.4019 554.88 57.4003 553.002 54.4364 551.095ZM63.4672 552.24C60.99 551.954 58.5129 551.645 56.0676 551.318C59.1532 553.305 62.2793 555.258 65.3968 557.21C67.8652 557.726 70.3482 558.218 72.8427 558.705C69.7079 556.535 66.5731 554.404 63.4672 552.24ZM72.4748 553.279C69.9512 552.993 67.4335 552.724 64.9419 552.42C68.1289 554.651 71.368 556.844 74.5956 559.04C77.122 559.526 79.6484 560.019 82.198 560.471C78.9453 558.083 75.7042 555.681 72.4748 553.265V553.279ZM529.372 403.311C531.261 401.516 533.165 399.787 535.048 397.952C535.891 392.572 536.786 387.33 537.571 381.787C535.888 384.078 534.179 386.236 532.484 388.47C531.493 393.54 530.409 398.355 529.369 403.297L529.372 403.311ZM522.79 409.498C524.69 407.743 526.585 405.948 528.477 404.153C529.5 399.346 530.557 394.639 531.534 389.701C529.842 391.919 528.15 394.133 526.443 396.285C525.27 400.803 524.004 405.083 522.787 409.484L522.79 409.498ZM516.201 415.456C518.073 413.784 519.945 412.132 521.807 410.42C522.966 406.22 524.172 402.069 525.313 397.771C523.653 399.864 521.978 401.885 520.307 403.935C518.965 407.846 517.569 411.602 516.198 415.442L516.201 415.456ZM509.625 421.251C511.463 419.651 513.298 418.029 515.129 416.383C516.43 412.762 517.737 409.163 519.017 405.467C517.38 407.462 515.738 409.438 514.092 411.396C512.612 414.743 511.102 417.967 509.625 421.251ZM503.077 426.882C504.838 425.395 506.597 423.892 508.353 422.373C509.714 419.41 511.073 416.441 512.409 413.429C510.87 415.235 509.32 416.993 507.773 418.763C506.206 421.503 504.63 424.177 503.062 426.882H503.077ZM496.871 432.007C498.43 430.724 499.991 429.45 501.544 428.147C502.877 425.874 504.203 423.584 505.522 421.276C504.197 422.775 502.869 424.258 501.538 425.725C499.977 427.853 498.409 429.911 496.856 431.995L496.871 432.007ZM491.569 436.384C492.603 435.557 493.626 434.666 494.657 433.833C495.344 432.92 496.028 431.984 496.714 431.068C494.996 432.894 493.267 434.601 491.554 436.384H491.569ZM7.92387 541.298C5.9885 541.106 4.0908 540.9 2.17861 540.699C4.34189 541.375 6.5216 542.043 8.71772 542.703C10.5169 543.064 12.3451 543.413 14.1588 543.763C12.064 542.955 9.99831 542.125 7.92387 541.298ZM16.9054 542.119C14.6977 541.925 12.4928 541.724 10.3112 541.518C12.8666 542.526 15.4278 543.522 18.0208 544.524C20.1532 544.925 22.3232 545.309 24.4933 545.69C21.9524 544.51 19.4376 543.316 16.917 542.119H16.9054ZM25.8869 542.852C23.5488 542.675 21.2078 542.5 18.9103 542.303C21.6627 543.6 24.4151 544.899 27.2109 546.173C29.5519 546.582 31.9074 546.981 34.2773 547.37C31.4612 545.881 28.6798 544.367 25.8927 542.852H25.8869ZM34.8423 543.502C32.4086 543.338 29.9942 543.166 27.5991 542.987C30.5254 544.57 33.4487 546.156 36.4126 547.711C38.8695 548.109 41.3379 548.51 43.8122 548.885C40.799 547.107 37.8207 545.306 34.8481 543.502H34.8423ZM43.7774 544.075C41.2829 543.929 38.8202 543.766 36.3547 543.605C39.4171 545.461 42.4737 547.327 45.5766 549.145C48.0712 549.514 50.5889 549.872 53.1095 550.222C49.9863 548.185 46.8775 546.134 43.7832 544.069L43.7774 544.075ZM52.643 544.527C50.134 544.407 47.6337 544.281 45.1594 544.144C48.3464 546.256 51.5189 548.372 54.7378 550.442C57.2381 550.783 59.7732 551.089 62.3083 551.398C59.073 549.123 55.8532 546.827 52.6488 544.51L52.643 544.527ZM61.4652 544.888C58.9475 544.799 56.4326 544.705 53.9497 544.602C57.2091 546.946 60.4801 549.291 63.7772 551.602C66.321 551.911 68.8754 552.208 71.4404 552.495C68.1047 549.966 64.7816 547.428 61.471 544.882L61.4652 544.888ZM526.101 418.731C528.205 417.357 530.308 416.031 532.409 414.631C533.295 409.627 534.057 404.282 534.865 399.065C532.956 400.912 531.032 402.653 529.117 404.465C528.129 409.243 527.173 414.136 526.107 418.725L526.101 418.731ZM518.916 423.401C521.022 422.058 523.126 420.672 525.229 419.298C526.284 414.795 527.234 410.002 528.222 405.307C526.295 407.13 524.369 408.968 522.427 410.746C521.277 414.989 520.144 419.321 518.922 423.406L518.916 423.401ZM511.74 427.887C513.817 426.593 515.897 425.333 517.974 424.013C519.18 420.031 520.292 415.817 521.451 411.671C519.548 413.409 517.633 415.064 515.723 416.767C514.411 420.498 513.101 424.294 511.745 427.881L511.74 427.887ZM504.54 432.322C506.603 431.071 508.663 429.791 510.725 428.511C512.07 425.018 513.35 421.354 514.645 417.715C512.739 419.41 510.833 421.11 508.918 422.765C507.475 425.983 506.035 429.23 504.546 432.316L504.54 432.322ZM497.384 436.616C499.389 435.431 501.393 434.248 503.395 433.035C504.844 430.069 506.241 426.977 507.646 423.896C505.794 425.488 503.934 427.025 502.077 428.585C500.527 431.274 498.977 433.999 497.389 436.602L497.384 436.616ZM490.358 440.719C492.262 439.616 494.166 438.505 496.068 437.386C497.578 434.933 499.064 432.393 500.547 429.848C498.754 431.343 496.958 432.834 495.159 434.297C493.571 436.45 491.98 438.626 490.364 440.704L490.358 440.719ZM483.604 444.592C485.296 443.636 486.988 442.651 488.68 441.678C490.111 439.851 491.535 437.993 492.951 436.104C491.349 437.395 489.741 438.646 488.133 439.914C486.626 441.495 485.122 443.089 483.604 444.592ZM478.268 447.538C479.267 446.986 480.267 446.442 481.266 445.884C482.298 444.867 483.338 443.879 484.366 442.826C482.335 444.409 480.304 446.024 478.268 447.547V447.538ZM15.5002 537.101C13.0694 537.135 10.6415 537.164 8.25705 537.181C11.1949 538.622 14.1568 540.053 17.1429 541.475C19.5506 541.687 21.9872 541.885 24.4353 542.076C21.4367 540.425 18.4612 538.764 15.5002 537.101ZM24.2586 536.958C21.7786 537.006 19.313 537.052 16.8764 537.086C19.9417 538.804 23.0321 540.509 26.1476 542.2C28.619 542.391 31.099 542.575 33.6052 542.749C30.4529 540.834 27.3529 538.896 24.2586 536.958ZM33.0025 536.763C30.4848 536.829 28.0019 536.883 25.5218 536.932C28.6972 538.917 31.8919 540.888 35.1059 542.847C37.6208 543.016 40.1298 543.187 42.6736 543.336C39.4229 541.163 36.2127 538.964 33.0025 536.763ZM41.7262 536.517C39.1911 536.597 36.6907 536.663 34.1933 536.731C37.4653 538.968 40.7556 541.195 44.0643 543.411C46.5646 543.554 49.0997 543.677 51.6377 543.797C48.3029 541.389 45.0146 538.953 41.7175 536.517H41.7262ZM50.4179 536.199C47.8828 536.302 45.3564 536.396 42.8648 536.485C46.2082 538.955 49.57 541.417 52.9501 543.872C55.465 543.986 58.0059 544.086 60.5554 544.181C57.1396 541.538 53.7759 538.867 50.4092 536.207L50.4179 536.199ZM522.286 433.845C524.603 432.897 526.907 431.964 529.219 431.002C530.239 425.883 531.287 420.844 532.243 415.542C530.123 416.95 527.999 418.296 525.869 419.682C524.719 424.552 523.479 429.132 522.277 433.845H522.286ZM514.532 437.026C516.85 436.098 519.154 435.13 521.466 434.183C522.654 429.57 523.862 425.021 524.997 420.26C522.865 421.651 520.735 423.06 518.6 424.417C517.273 428.729 515.885 432.854 514.524 437.026H514.532ZM506.797 440.083C509.089 439.176 511.377 438.294 513.675 437.372C515.013 433.286 516.364 429.241 517.659 425.03C515.547 426.367 513.434 427.629 511.322 428.94C509.833 432.743 508.3 436.384 506.788 440.083H506.797ZM499.038 443.138C501.318 442.25 503.607 441.34 505.89 440.438C507.373 436.839 508.863 433.281 510.308 429.559C508.193 430.867 506.081 432.187 503.963 433.47C502.335 436.762 500.675 439.929 499.029 443.138H499.038ZM491.32 446.093C493.565 445.234 495.807 444.395 498.056 443.516C499.652 440.424 501.243 437.346 502.819 434.171C500.747 435.419 498.673 436.622 496.598 437.844C494.849 440.65 493.073 443.356 491.311 446.093H491.32ZM483.639 448.996C485.835 448.173 488.033 447.343 490.233 446.505C491.919 443.897 493.611 441.291 495.28 438.623C493.252 439.823 491.204 441.019 489.164 442.193C487.316 444.489 485.473 446.734 483.63 448.996H483.639ZM476.08 451.801C478.172 451.038 480.265 450.264 482.358 449.479C484.072 447.395 485.778 445.296 487.478 443.181C485.551 444.283 483.625 445.354 481.701 446.436C479.82 448.231 477.946 450.015 476.071 451.801H476.08ZM468.906 454.404C470.767 453.731 472.624 453.061 474.487 452.38C476.115 450.839 477.739 449.287 479.36 447.722C477.66 448.676 475.959 449.615 474.258 450.539C472.467 451.841 470.682 453.115 468.898 454.404H468.906ZM463.086 456.514C464.245 456.099 465.418 455.655 466.58 455.245C467.507 454.584 468.428 453.906 469.353 453.241C467.255 454.364 465.166 455.414 463.077 456.514H463.086ZM13.5416 530.146C11.0529 530.433 8.56996 530.702 6.13047 530.968C9.29041 532.8 12.4774 534.619 15.6914 536.425C18.1734 536.391 20.6776 536.351 23.204 536.305C19.961 534.264 16.7402 532.212 13.5416 530.146ZM22.0972 529.182L14.6223 530.041C17.8788 532.14 21.1624 534.224 24.473 536.293C26.9849 536.245 29.4997 536.196 32.0522 536.13C28.7107 533.819 25.3924 531.503 22.0972 529.182ZM30.65 528.205L23.1171 529.064C26.4605 531.418 29.832 533.758 33.2314 536.084C35.752 536.018 38.2813 535.947 40.8367 535.87C37.4199 533.325 34.0243 530.771 30.65 528.205ZM39.1911 527.212L31.6582 528.091C35.0808 530.685 38.5276 533.261 41.9985 535.821C44.5075 535.741 47.0542 535.643 49.6067 535.535C46.1049 532.782 42.633 530.008 39.1911 527.212ZM518.519 448.314L526.014 446.751C527.083 441.924 528.06 436.831 529.056 431.801C526.739 432.765 524.401 433.707 522.071 434.664C520.904 439.256 519.765 443.905 518.519 448.314ZM510.239 450.032C512.719 449.52 515.219 448.996 517.714 448.477C518.942 444.123 520.087 439.533 521.251 434.996C518.919 435.952 516.581 436.928 514.254 437.859C512.927 441.961 511.618 446.104 510.239 450.032ZM501.967 451.727C504.447 451.217 506.918 450.716 509.404 450.201C510.778 446.322 512.081 442.242 513.4 438.202C511.082 439.136 508.764 440.029 506.446 440.945C504.957 444.575 503.491 448.246 501.967 451.73V451.727ZM493.704 453.422C496.161 452.921 498.629 452.408 501.101 451.904C502.61 448.469 504.068 444.873 505.531 441.311C503.213 442.228 500.895 443.158 498.577 444.054C496.955 447.203 495.353 450.39 493.704 453.425V453.422ZM485.473 455.082C487.912 454.59 490.337 454.106 492.786 453.608C494.411 450.633 495.996 447.524 497.583 444.446C495.286 445.334 492.994 446.184 490.7 447.057C488.964 449.746 487.237 452.483 485.473 455.085V455.082ZM477.277 456.734L484.473 455.286C486.212 452.74 487.907 450.095 489.613 447.455C487.333 448.314 485.056 449.173 482.784 450.032C480.942 452.294 479.128 454.567 477.277 456.737V456.734ZM469.164 458.352L476.152 456.96C477.949 454.865 479.725 452.692 481.504 450.519C479.284 451.346 477.074 452.148 474.86 452.958C472.966 454.779 471.074 456.617 469.164 458.355V458.352ZM461.226 459.924L467.832 458.615C469.651 456.958 471.459 455.251 473.267 453.536C471.142 454.309 469.018 455.078 466.893 455.844C465.007 457.221 463.121 458.604 461.24 459.926L461.226 459.924ZM453.676 461.412C455.614 461.034 457.564 460.645 459.505 460.267C461.197 459.093 462.887 457.9 464.575 456.688C462.674 457.367 460.78 458.031 458.885 458.692C457.149 459.611 455.411 460.533 453.676 461.415V461.412ZM447.733 462.557L451.172 461.888C452.285 461.315 453.397 460.777 454.51 460.204C452.259 461.006 449.987 461.802 447.733 462.572V462.557ZM11.0761 521.32C8.57865 521.835 6.0957 522.351 3.65041 522.863C6.97067 525.068 10.346 527.258 13.73 529.448L21.2628 528.589C17.8499 526.187 14.4398 523.756 11.0761 521.32ZM19.4521 519.602C16.9411 520.112 14.4533 520.62 11.9887 521.128C15.3901 523.59 18.8436 526.035 22.3059 528.477C24.8178 528.191 27.3239 527.905 29.8764 527.618C26.3794 524.953 22.8853 522.288 19.4521 519.602ZM27.8367 517.913C25.3074 518.417 22.8274 518.921 20.3444 519.425C23.8211 522.124 27.3413 524.816 30.873 527.498L38.461 526.616C34.9002 523.725 31.3424 520.828 27.8367 517.916V517.913ZM514.307 462.317L522.355 462.031C523.537 457.241 524.722 452.454 525.832 447.481L518.299 449.053C517.01 453.591 515.651 457.937 514.307 462.32V462.317ZM505.522 462.652C508.182 462.543 510.865 462.446 513.539 462.343C514.874 458.02 516.213 453.699 517.491 449.213C514.979 449.737 512.458 450.264 509.958 450.779C508.515 454.845 507.017 458.73 505.522 462.655V462.652ZM496.749 463.021C499.412 462.91 502.066 462.792 504.74 462.683C506.217 458.818 507.695 454.953 509.126 450.945C506.614 451.463 504.12 451.97 501.617 452.483C500.02 456.09 498.38 459.543 496.749 463.024V463.021ZM488.011 463.391C490.639 463.273 493.304 463.17 495.947 463.056C497.557 459.62 499.174 456.21 500.747 452.666C498.253 453.178 495.744 453.697 493.258 454.201C491.531 457.341 489.767 460.353 488.011 463.393V463.391ZM479.29 463.809C481.921 463.683 484.531 463.551 487.177 463.431C488.915 460.445 490.636 457.47 492.337 454.389C489.848 454.896 487.382 455.389 484.902 455.887C483.048 458.589 481.165 461.198 479.29 463.811V463.809ZM470.622 464.227C473.203 464.098 475.808 463.978 478.401 463.852C480.241 461.275 482.083 458.73 483.906 456.09C481.447 456.586 478.989 457.081 476.532 457.573C474.568 459.838 472.595 462.022 470.622 464.229V464.227ZM462.008 464.673C464.555 464.539 467.096 464.387 469.657 464.272C471.578 462.131 473.499 459.998 475.405 457.802L468.162 459.234C466.114 461.083 464.059 462.872 462.008 464.676V464.673ZM453.502 465.131C455.962 464.994 458.431 464.861 460.907 464.733C462.883 463.016 464.859 461.272 466.826 459.503C464.474 459.972 462.124 460.438 459.777 460.9C457.688 462.343 455.594 463.726 453.502 465.134V465.131ZM445.201 465.592C447.519 465.458 449.837 465.329 452.181 465.2C454.139 463.889 456.101 462.575 458.056 461.241L451.393 462.546C449.327 463.571 447.264 464.579 445.201 465.595V465.592ZM437.347 466.059C439.375 465.939 441.403 465.813 443.457 465.695C445.259 464.813 447.059 463.928 448.857 463.038L443.017 464.184C441.125 464.814 439.236 465.432 437.347 466.065V466.059ZM431.416 466.411C432.517 466.342 433.632 466.282 434.739 466.214L437.854 465.177C435.698 465.598 433.563 466.002 431.416 466.414V466.411ZM8.16144 510.71C5.6756 511.443 3.20713 512.178 0.776335 512.917C4.22987 515.482 7.72299 518.042 11.2557 520.596C13.7358 520.083 16.2303 519.571 18.7567 519.058C15.1989 516.281 11.6526 513.498 8.16144 510.71ZM16.3954 508.319C13.8961 509.031 11.4238 509.748 8.97847 510.469C12.4977 513.279 16.0545 516.082 19.6491 518.878C22.1436 518.374 24.6353 517.867 27.1819 517.363C23.5565 514.355 19.961 511.341 16.3954 508.319ZM510.045 475.799C512.872 476.105 515.732 476.437 518.58 476.755C519.829 472.191 521.014 467.456 522.19 462.695C519.486 462.788 516.789 462.884 514.101 462.981C512.771 467.336 511.435 471.659 510.045 475.799ZM500.773 474.817C503.592 475.103 506.435 475.412 509.274 475.716C510.662 471.599 511.995 467.316 513.33 463.018C510.636 463.119 507.935 463.219 505.258 463.328C503.789 467.21 502.315 471.103 500.788 474.828L500.773 474.817ZM491.54 473.903C494.356 474.174 497.179 474.453 500.009 474.739C501.527 471.052 502.999 467.207 504.467 463.362C501.773 463.471 499.099 463.588 496.416 463.703C494.82 467.158 493.209 470.608 491.554 473.915L491.54 473.903ZM482.367 473.004C485.143 473.256 487.968 473.554 490.769 473.826C492.412 470.551 494.017 467.144 495.616 463.737C492.951 463.852 490.256 463.955 487.605 464.075C485.882 467.098 484.149 470.121 482.39 473.016L482.367 473.004ZM473.197 472.211C475.987 472.455 478.757 472.678 481.565 472.933C483.32 470.07 485.041 467.092 486.78 464.115C484.103 464.238 481.457 464.373 478.795 464.499C476.941 467.11 475.092 469.726 473.212 472.223L473.197 472.211ZM464.112 471.427C466.841 471.647 469.616 471.902 472.36 472.14C474.223 469.672 476.057 467.107 477.891 464.542C475.254 464.668 472.603 464.791 469.981 464.922C468.046 467.124 466.099 469.331 464.138 471.438L464.112 471.427ZM455.055 470.734C457.775 470.937 460.481 471.129 463.219 471.35C465.163 469.277 467.09 467.121 469.014 464.968C466.386 465.103 463.799 465.254 461.177 465.383C459.157 467.21 457.12 469.013 455.069 470.746L455.055 470.734ZM446.099 470.076C448.742 470.259 451.401 470.459 454.058 470.648C456.086 468.953 458.077 467.19 460.079 465.429C457.514 465.566 454.947 465.715 452.398 465.844C450.315 467.284 448.217 468.721 446.114 470.087L446.099 470.076ZM437.274 469.474C439.828 469.637 442.389 469.808 444.958 469.99C447 468.667 449.04 467.296 451.077 465.924L443.625 466.351C441.522 467.413 439.404 468.475 437.289 469.5L437.274 469.474ZM428.617 468.948C431.025 469.091 433.432 469.234 435.86 469.386C437.868 468.432 439.879 467.442 441.89 466.454L434.864 466.872C432.792 467.582 430.706 468.283 428.632 468.959L428.617 468.948ZM420.624 468.461C422.652 468.573 424.726 468.716 426.763 468.836C428.588 468.244 430.417 467.641 432.25 467.027L426.166 467.402L420.624 468.461ZM414.464 468.175C415.559 468.229 416.64 468.272 417.738 468.329L420.699 467.757C418.633 467.906 416.55 468.037 414.479 468.177L414.464 468.175ZM505.438 488.788C508.422 489.484 511.458 490.24 514.466 490.964C515.804 486.542 517.11 482.024 518.383 477.411C515.523 477.09 512.649 476.758 509.807 476.451C508.39 480.666 506.924 484.757 505.444 488.799L505.438 488.788ZM495.718 486.563C498.704 487.239 501.698 487.926 504.699 488.625C506.174 484.617 507.623 480.551 509.045 476.38C506.188 476.074 503.332 475.767 500.495 475.478C498.942 479.26 497.337 482.925 495.718 486.563ZM486.041 484.405C489.011 485.054 491.994 485.722 494.988 486.409C496.59 482.807 498.175 479.157 499.733 475.409C496.882 475.119 494.041 474.838 491.21 474.565C489.52 477.917 487.785 481.164 486.05 484.405H486.041ZM476.434 482.301C479.368 482.922 482.35 483.592 485.311 484.242C487.032 481.038 488.747 477.806 490.433 474.479C487.611 474.193 484.763 473.906 481.962 473.657C480.148 476.606 478.294 479.452 476.442 482.301H476.434ZM466.841 480.334C469.784 480.935 472.716 481.519 475.683 482.146C477.52 479.329 479.354 476.503 481.159 473.586C478.325 473.328 475.524 473.099 472.708 472.858C470.775 475.406 468.811 477.863 466.849 480.334H466.841ZM457.355 478.39C460.232 478.962 463.17 479.584 466.067 480.173C468.008 477.737 469.949 475.306 471.862 472.784C469.077 472.546 466.27 472.286 463.506 472.063C461.478 474.218 459.421 476.294 457.364 478.39H457.355ZM447.875 476.595C450.773 477.141 453.632 477.651 456.55 478.224C458.578 476.162 460.606 474.11 462.634 471.985C459.841 471.762 457.089 471.573 454.313 471.364C452.172 473.145 450.025 474.86 447.884 476.595H447.875ZM438.523 474.848C441.325 475.355 444.164 475.899 446.992 476.429C449.098 474.728 451.204 473.036 453.305 471.292C450.581 471.089 447.846 470.88 445.143 470.691C442.947 472.1 440.736 473.465 438.532 474.848H438.523ZM429.252 473.205C431.998 473.68 434.757 474.166 437.529 474.662C439.682 473.319 441.84 471.98 443.99 470.608C441.31 470.422 438.647 470.25 435.985 470.081C433.757 471.138 431.512 472.163 429.269 473.205H429.252ZM420.12 471.667C422.762 472.103 425.413 472.548 428.073 473.004C430.237 472.005 432.401 471 434.565 469.995C431.987 469.831 429.416 469.675 426.853 469.526C424.622 470.247 422.382 470.952 420.137 471.667H420.12ZM411.387 470.213C413.789 470.591 416.243 471.023 418.662 471.421C420.769 470.751 422.872 470.087 424.981 469.417C422.582 469.283 420.177 469.131 417.796 469.016L411.387 470.213ZM403.011 468.956C405.126 469.277 407.221 469.575 409.348 469.907L414.873 468.87C412.758 468.762 410.651 468.664 408.548 468.567C406.708 468.693 404.877 468.827 403.029 468.956H403.011ZM396.985 468.054C397.967 468.198 398.961 468.341 399.946 468.498L402.843 468.292C400.898 468.21 398.951 468.135 397.002 468.069L396.985 468.054ZM500.658 501.305C503.769 502.379 506.947 503.538 510.094 504.655C511.516 500.4 512.913 496.066 514.266 491.625C511.247 490.898 508.196 490.139 505.2 489.441C503.729 493.481 502.22 497.436 500.675 501.305H500.658ZM490.517 497.887C493.658 498.943 496.775 499.962 499.939 501.036C501.484 497.194 502.996 493.265 504.473 489.249C501.446 488.545 498.438 487.86 495.431 487.182C493.837 490.829 492.203 494.408 490.537 497.887H490.517ZM480.458 494.537C483.552 495.55 486.678 496.601 489.804 497.649C491.462 494.19 493.093 490.643 494.704 487.033C491.696 486.354 488.697 485.686 485.705 485.029C483.992 488.25 482.251 491.442 480.478 494.537H480.458ZM470.459 491.29C473.533 492.269 476.639 493.294 479.731 494.299C481.495 491.227 483.233 488.064 484.946 484.851C481.962 484.199 478.96 483.526 476.002 482.902C474.206 485.748 472.357 488.568 470.48 491.29H470.459ZM460.493 488.193C463.567 489.143 466.632 490.079 469.732 491.056C471.601 488.353 473.444 485.561 475.28 482.753C472.29 482.123 469.332 481.53 466.363 480.923C464.427 483.383 462.486 485.836 460.513 488.193H460.493ZM450.642 485.138C453.638 486.034 456.726 487.03 459.74 487.963C461.701 485.624 463.639 483.202 465.578 480.769C462.648 480.173 459.676 479.532 456.77 478.962C454.768 481.047 452.734 483.137 450.677 485.138H450.642ZM440.792 482.275C443.828 483.157 446.818 483.993 449.883 484.897C451.911 482.913 453.939 480.852 455.967 478.788C453.006 478.215 450.106 477.697 447.168 477.144C445.074 478.882 442.95 480.626 440.815 482.283L440.792 482.275ZM431.08 479.478C434.018 480.302 436.999 481.181 439.963 482.037C442.081 480.397 444.184 478.685 446.29 476.981C443.414 476.44 440.519 475.882 437.662 475.366C435.495 476.758 433.302 478.158 431.109 479.486L431.08 479.478ZM421.426 476.821C424.323 477.608 427.241 478.395 430.179 479.217C432.349 477.909 434.525 476.54 436.68 475.183C433.824 474.671 430.993 474.187 428.162 473.697C425.937 474.754 423.692 475.819 421.449 476.829L421.426 476.821ZM411.865 474.281C414.693 475.023 417.529 475.77 420.383 476.543C422.582 475.555 424.787 474.522 426.989 473.5C424.221 473.025 421.463 472.56 418.714 472.105C416.446 472.844 414.16 473.583 411.883 474.29L411.865 474.281ZM402.594 471.856C405.254 472.526 407.966 473.259 410.648 473.958C412.847 473.274 415.055 472.564 417.263 471.859C414.626 471.43 411.984 471 409.371 470.582L402.594 471.856ZM393.401 469.629C395.933 470.242 398.442 470.829 400.995 471.467L407.331 470.279C404.851 469.892 402.388 469.532 399.926 469.168C397.759 469.328 395.577 469.48 393.413 469.638L393.401 469.629ZM385.153 467.625C387.163 468.094 389.209 468.613 391.237 469.099C393.097 468.962 394.977 468.833 396.855 468.701C394.928 468.415 392.961 468.1 391.06 467.843C389.099 467.782 387.12 467.699 385.164 467.639L385.153 467.625ZM379.558 466.322C380.346 466.503 381.111 466.654 381.902 466.838C382.612 466.858 383.333 466.889 384.046 466.912C382.553 466.729 381.061 466.542 379.57 466.351L379.558 466.322ZM495.677 513.315C498.928 514.747 502.257 516.31 505.551 517.813C507.04 513.77 508.448 509.51 509.879 505.279C506.721 504.156 503.529 502.988 500.403 501.915C498.864 505.803 497.3 509.633 495.689 513.329L495.677 513.315ZM485.12 508.763C488.414 510.194 491.659 511.543 494.97 513.012C496.575 509.338 498.128 505.513 499.675 501.663C496.488 500.569 493.365 499.544 490.21 498.482C488.556 501.995 486.858 505.43 485.131 508.777L485.12 508.763ZM474.666 504.26C477.894 505.625 481.168 507.054 484.43 508.465C486.151 505.144 487.837 501.717 489.509 498.244C486.368 497.194 483.225 496.134 480.11 495.115C478.325 498.24 476.515 501.292 474.678 504.274L474.666 504.26ZM464.268 499.919C467.495 501.251 470.726 502.59 473.985 503.967C475.807 501.001 477.611 497.971 479.397 494.878C476.274 493.858 473.148 492.839 470.054 491.854C468.153 494.617 466.221 497.288 464.28 499.934L464.268 499.919ZM453.933 495.728C457.141 497.019 460.342 498.305 463.581 499.639C465.508 497.016 467.426 494.357 469.327 491.622C466.203 490.632 463.115 489.687 460.018 488.731C458.013 491.136 455.979 493.44 453.945 495.742L453.933 495.728ZM443.732 491.611C446.864 492.839 450.074 494.188 453.235 495.444C455.263 493.154 457.277 490.864 459.276 488.505C456.225 487.566 453.122 486.558 450.098 485.642C447.997 487.7 445.885 489.658 443.744 491.625L443.732 491.611ZM433.511 487.732C436.698 488.94 439.803 490.085 443.008 491.336C445.114 489.386 447.226 487.442 449.318 485.43C446.221 484.505 443.193 483.666 440.125 482.779C437.938 484.479 435.727 486.105 433.522 487.746L433.511 487.732ZM423.469 483.921C426.534 485.066 429.654 486.266 432.74 487.442C434.925 485.822 437.109 484.21 439.285 482.541C436.28 481.682 433.253 480.775 430.274 479.941C428.029 481.31 425.755 482.613 423.48 483.935L423.469 483.921ZM413.465 480.291C416.521 481.39 419.549 482.469 422.652 483.612C424.897 482.306 427.143 481.018 429.385 479.681C426.381 478.845 423.417 478.055 420.441 477.25C418.126 478.295 415.803 479.292 413.476 480.305L413.465 480.291ZM403.585 476.804C406.552 477.838 409.534 478.888 412.532 479.953C414.818 478.957 417.104 477.975 419.389 476.961C416.469 476.175 413.56 475.403 410.663 474.645C408.307 475.395 405.958 476.099 403.585 476.818V476.804ZM393.943 473.451C396.771 474.404 399.653 475.429 402.51 476.423C404.828 475.724 407.114 475.031 409.423 474.324C406.601 473.591 403.773 472.853 400.977 472.154L393.943 473.451ZM384.295 470.302C387.062 471.204 389.8 472.071 392.596 473.01L399.366 471.762C396.617 471.078 393.902 470.434 391.182 469.778C388.884 469.964 386.604 470.141 384.307 470.316L384.295 470.302ZM375.232 467.344C377.666 468.112 380.158 468.956 382.617 469.755L389.052 469.263C386.645 468.69 384.188 468.057 381.809 467.508C379.607 467.456 377.434 467.413 375.244 467.359L375.232 467.344ZM366.607 464.693C368.754 465.349 370.855 465.944 373.019 466.623L378.292 466.737C376.064 466.234 373.874 465.773 371.66 465.286C369.977 465.088 368.305 464.919 366.619 464.708L366.607 464.693ZM360.207 462.781L362.974 463.608L365.054 463.84C363.458 463.514 361.812 463.124 360.219 462.795L360.207 462.781ZM490.372 524.861C493.748 526.651 497.178 528.526 500.602 530.387C502.196 526.462 503.789 522.568 505.331 518.457C502.022 516.945 498.667 515.385 495.419 513.942C493.785 517.707 492.085 521.291 490.384 524.876L490.372 524.861ZM479.493 519.227C482.903 520.999 486.261 522.7 489.703 524.521C491.398 520.953 493.099 517.386 494.741 513.641C491.401 512.167 488.144 510.807 484.836 509.373C483.077 512.757 481.286 516.003 479.493 519.227ZM468.724 513.644C472.053 515.336 475.448 517.126 478.815 518.875C480.608 515.668 482.399 512.442 484.146 509.089C480.869 507.658 477.578 506.226 474.333 504.861C472.479 507.864 470.604 510.773 468.718 513.644H468.724ZM458.004 508.279C461.356 509.945 464.668 511.577 468.072 513.298C469.952 510.435 471.821 507.549 473.667 504.569C470.387 503.183 467.139 501.837 463.894 500.5C461.932 503.146 459.962 505.739 457.984 508.279H458.004ZM447.333 503.054C450.645 504.666 453.962 506.286 457.306 507.947C459.278 505.428 461.236 502.851 463.179 500.217C459.922 498.877 456.695 497.577 453.467 496.28C451.439 498.579 449.399 500.853 447.333 503.054ZM436.819 497.947C440.064 499.487 443.379 501.13 446.67 502.722C448.721 500.535 450.755 498.282 452.783 496C449.596 494.717 446.357 493.38 443.199 492.143C441.075 494.105 438.958 496.066 436.825 497.947H436.819ZM426.291 493.08C429.57 494.597 432.804 496.051 436.118 497.623C438.245 495.754 440.354 493.815 442.463 491.866C439.23 490.606 436.072 489.444 432.873 488.227C430.689 489.862 428.501 491.508 426.297 493.08H426.291ZM415.953 488.301C419.123 489.733 422.359 491.262 425.564 492.745C427.754 491.187 429.933 489.561 432.114 487.938C428.982 486.75 425.821 485.519 422.721 484.373C420.473 485.693 418.219 487.033 415.959 488.301H415.953ZM405.613 483.721C408.8 485.121 411.958 486.48 415.174 487.932C417.416 486.678 419.656 485.355 421.898 484.053C418.752 482.89 415.664 481.808 412.549 480.692C410.249 481.719 407.931 482.753 405.613 483.732V483.721ZM395.394 479.294C398.498 480.621 401.618 481.971 404.753 483.346C407.041 482.381 409.333 481.364 411.625 480.362C408.569 479.269 405.527 478.194 402.498 477.139C400.134 477.872 397.761 478.602 395.4 479.306L395.394 479.294ZM385.39 475.031C388.377 476.271 391.416 477.591 394.438 478.879C396.756 478.189 399.094 477.468 401.424 476.758C398.454 475.73 395.487 474.699 392.549 473.712L385.39 475.031ZM375.36 470.986C378.315 472.177 381.236 473.322 384.22 474.559C386.537 474.135 388.873 473.7 391.202 473.271C388.287 472.294 385.408 471.375 382.531 470.439C380.14 470.645 377.744 470.811 375.366 470.998L375.36 470.986ZM365.819 467.138C368.496 468.186 371.246 469.331 373.952 470.416C376.238 470.239 378.547 470.064 380.85 469.892C378.208 469.034 375.513 468.115 372.894 467.293C370.536 467.25 368.172 467.193 365.825 467.15L365.819 467.138ZM356.386 463.548C358.953 464.521 361.462 465.418 364.052 466.411C366.187 466.448 368.346 466.503 370.498 466.554C367.908 465.75 365.382 465.028 362.815 464.264C360.677 464.04 358.527 463.791 356.391 463.56L356.386 463.548ZM347.874 460.376C349.835 461.097 351.808 461.836 353.784 462.578C355.572 462.769 357.382 462.981 359.187 463.184C357.258 462.612 355.302 462.005 353.393 461.45C351.562 461.109 349.713 460.74 347.879 460.387L347.874 460.376ZM342.789 458.478C343.192 458.627 343.606 458.79 344.009 458.936C344.547 459.036 345.095 459.148 345.634 459.251C344.684 458.996 343.748 458.755 342.795 458.489L342.789 458.478ZM484.998 536.027C488.521 538.169 492.066 540.346 495.634 542.56C497.271 538.896 498.797 534.908 500.362 531.031C496.926 529.165 493.484 527.284 490.094 525.488C488.405 529.05 486.736 532.652 484.998 536.027ZM473.739 529.299C477.271 531.412 480.765 533.465 484.329 535.626C486.067 532.271 487.727 528.669 489.407 525.131C485.954 523.304 482.579 521.595 479.157 519.817C477.361 523.038 475.576 526.247 473.733 529.299H473.739ZM462.625 522.657C466.067 524.661 469.596 526.823 473.084 528.907C474.918 525.872 476.694 522.657 478.479 519.459C475.095 517.701 471.685 515.903 468.339 514.203C466.455 517.077 464.549 519.923 462.619 522.657H462.625ZM451.532 516.298C455.008 518.302 458.453 520.209 461.982 522.273C463.906 519.553 465.792 516.713 467.675 513.862C464.268 512.144 460.925 510.495 457.555 508.82C455.556 511.362 453.548 513.876 451.526 516.298H451.532ZM440.563 510.068C443.985 511.992 447.426 513.947 450.886 515.932C452.914 513.513 454.895 511.019 456.883 508.488C453.518 506.816 450.174 505.175 446.85 503.564C444.761 505.783 442.663 507.941 440.557 510.068H440.563ZM429.712 503.999C433.085 505.854 436.509 507.79 439.919 509.702C442.017 507.589 444.103 505.433 446.177 503.235C442.869 501.628 439.531 499.982 436.26 498.431C434.081 500.332 431.894 502.167 429.707 503.999H429.712ZM418.882 498.179C422.272 500.002 425.621 501.763 429.052 503.644C431.228 501.826 433.398 499.994 435.562 498.107C432.221 496.524 428.956 495.055 425.65 493.526C423.393 495.112 421.134 496.641 418.877 498.179H418.882ZM408.258 492.47C411.532 494.188 414.887 496.034 418.202 497.812C420.444 496.286 422.689 494.766 424.926 493.191C421.69 491.694 418.419 490.145 415.22 488.702C412.894 489.988 410.573 491.219 408.252 492.47H408.258ZM397.625 487.01C400.934 488.705 404.193 490.328 407.543 492.083C409.846 490.844 412.149 489.621 414.45 488.347C411.179 486.876 407.986 485.513 404.75 484.093C402.368 485.086 399.995 486.037 397.619 487.01H397.625ZM387.157 481.711C390.362 483.31 393.586 484.942 396.829 486.606C399.181 485.645 401.531 484.7 403.886 483.718C400.699 482.329 397.544 480.949 394.404 479.609C391.976 480.325 389.568 481.006 387.152 481.711H387.157ZM376.875 476.592C379.978 478.103 383.136 479.698 386.274 481.264C388.661 480.571 391.04 479.893 393.433 479.188C390.327 477.869 387.221 476.543 384.162 475.272L376.875 476.592ZM366.552 471.702C369.644 473.165 372.7 474.565 375.823 476.096C378.211 475.664 380.584 475.238 382.98 474.8C379.903 473.531 376.895 472.335 373.839 471.115C371.396 471.307 368.977 471.504 366.546 471.702H366.552ZM356.638 467.001C359.5 468.321 362.432 469.758 365.33 471.124C367.699 470.932 370.049 470.734 372.428 470.551C369.597 469.406 366.703 468.203 363.901 467.115C361.465 467.061 359.048 467.032 356.632 467.001H356.638ZM346.683 462.532C349.525 463.806 352.315 464.994 355.189 466.314C357.475 466.342 359.741 466.357 362.038 466.391C359.187 465.289 356.42 464.304 353.601 463.242C351.278 462.994 348.97 462.757 346.677 462.532H346.683ZM337.168 458.335C339.679 459.424 342.199 460.535 344.727 461.667C346.822 461.873 348.891 462.054 350.997 462.271C348.595 461.375 346.167 460.447 343.788 459.583C341.584 459.159 339.359 458.738 337.168 458.335ZM328.911 454.722C330.794 455.517 332.735 456.399 334.63 457.218C336.403 457.533 338.147 457.816 339.929 458.146C337.864 457.407 335.873 456.769 333.822 456.053C332.188 455.618 330.528 455.145 328.911 454.727V454.722ZM323.6 452.563C323.89 452.683 324.18 452.792 324.47 452.912L325.049 453.05C324.556 452.895 324.076 452.726 323.6 452.569V452.563ZM479.151 546.56C482.787 549.028 486.394 551.45 490.085 554.004C491.844 550.428 493.632 546.932 495.329 543.182C491.76 540.964 488.216 538.785 484.697 536.645C482.892 540.084 481.008 543.282 479.151 546.566V546.56ZM467.632 538.853C471.247 541.269 474.84 543.645 478.488 546.116C480.339 542.844 482.222 539.663 484.024 536.233C480.449 534.063 476.941 532.005 473.397 529.883C471.511 532.989 469.564 535.898 467.632 538.859V538.853ZM456.272 531.249C459.789 533.539 463.416 536.036 466.991 538.406C468.918 535.46 470.862 532.566 472.748 529.479C469.245 527.387 465.702 525.228 462.243 523.204C460.276 525.984 458.271 528.612 456.272 531.254V531.249ZM444.894 523.983C448.487 526.293 451.992 528.457 455.631 530.836C457.627 528.203 459.632 525.583 461.594 522.82C458.048 520.744 454.6 518.829 451.091 516.808C449.043 519.284 446.971 521.646 444.894 523.988V523.983ZM433.679 516.825C437.179 519.032 440.719 521.306 444.26 523.579C446.334 521.246 448.403 518.901 450.448 516.461C446.971 514.473 443.512 512.508 440.07 510.567C437.959 512.704 435.828 514.792 433.679 516.831V516.825ZM422.562 509.868C426.039 512.015 429.536 514.211 433.05 516.424C435.184 514.392 437.309 512.318 439.424 510.203C435.985 508.273 432.543 506.335 429.147 504.477C426.96 506.307 424.767 508.122 422.562 509.868ZM411.48 503.152C414.957 505.256 418.399 507.309 421.91 509.479C424.109 507.732 426.299 505.937 428.481 504.114C425.03 502.218 421.652 500.44 418.239 498.608C415.994 500.148 413.74 501.686 411.48 503.157V503.152ZM400.612 496.567C403.97 498.571 407.424 500.701 410.822 502.756C413.076 501.294 415.319 499.77 417.564 498.244C414.224 496.452 410.837 494.586 407.537 492.853C405.228 494.105 402.921 495.373 400.612 496.57V496.567ZM389.698 490.248C393.114 492.229 396.466 494.105 399.926 496.152C402.226 494.961 404.524 493.709 406.818 492.47C403.428 490.692 400.134 489.063 396.782 487.348C394.421 488.324 392.057 489.315 389.698 490.251V490.248ZM378.958 484.101C382.27 485.977 385.622 487.898 388.96 489.827C391.303 488.9 393.653 487.918 396 486.964C392.72 485.289 389.446 483.623 386.204 482.006C383.773 482.693 381.354 483.406 378.958 484.101ZM368.389 478.146C371.608 479.927 374.885 481.794 378.144 483.635C380.529 482.959 382.927 482.252 385.321 481.556C382.11 479.956 378.9 478.358 375.725 476.818L368.389 478.146ZM357.788 472.42C361.004 474.138 364.179 475.824 367.433 477.62C369.838 477.187 372.26 476.761 374.676 476.308C371.489 474.762 368.351 473.305 365.199 471.813L357.788 472.42ZM347.566 466.924C350.565 468.498 353.651 470.204 356.684 471.836C359.098 471.633 361.534 471.438 363.968 471.241C360.989 469.838 357.947 468.344 354.986 466.992C352.51 466.96 350.037 466.937 347.566 466.924ZM337.31 461.664C340.315 463.199 343.261 464.647 346.292 466.245C348.685 466.245 351.095 466.285 353.509 466.311C350.461 464.919 347.517 463.683 344.504 462.34C342.103 462.103 339.705 461.876 337.31 461.659V461.664ZM327.422 456.683C330.153 458.044 332.901 459.427 335.664 460.834C337.953 461.037 340.26 461.258 342.566 461.478C339.837 460.27 337.087 459.036 334.387 457.874C332.061 457.467 329.74 457.068 327.422 456.677V456.683ZM318.301 452.131C320.619 453.256 323.021 454.487 325.368 455.646C327.52 456.007 329.687 456.382 331.852 456.754C329.27 455.652 326.738 454.621 324.183 453.556L318.301 452.131ZM309.352 447.948C311.304 448.867 313.219 449.731 315.187 450.673C316.76 451.051 318.342 451.443 319.918 451.818C317.841 450.96 315.766 450.118 313.709 449.293C312.243 448.821 310.812 448.403 309.352 447.942V447.948ZM303.618 445.268L304.803 445.823L306.333 446.296C305.42 445.932 304.531 445.614 303.63 445.262L303.618 445.268ZM170.324 615.681C172.378 617.095 174.432 618.544 176.489 619.923C296.578 684.252 419.392 697 489.787 554.616C486.09 552.065 482.466 549.632 478.818 547.158C404.706 677.744 285.698 670.532 170.324 615.681ZM158.735 607.564C161.218 609.339 163.701 611.106 166.189 612.841C282.593 669.396 403.263 678.331 478.143 546.706C474.484 544.229 470.88 541.839 467.252 539.417C388.441 659.65 270.891 655.407 158.743 607.564H158.735ZM147.517 599.436C150.304 601.492 153.103 603.499 155.896 605.508C268.663 654.428 387.25 659.759 466.603 538.99C463.022 536.6 459.377 534.103 455.849 531.793C372.393 641.484 256.404 640.225 147.525 599.436H147.517ZM136.4 591.062C139.338 593.295 142.27 595.565 145.216 597.756C254.527 639.343 371.301 641.427 455.205 531.38C451.555 528.996 448.032 526.817 444.419 524.509C356.36 623.353 241.964 624.859 136.409 591.062H136.4ZM125.187 582.436C128.363 584.917 131.55 587.371 134.748 589.796C240.548 624.115 355.421 623.116 443.799 524.094C440.244 521.804 436.683 519.513 433.169 517.309C340.442 605.345 227.539 609.419 125.196 582.436H125.187ZM114.01 573.583C117.27 576.202 120.543 578.794 123.829 581.359C226.325 608.724 339.57 605.022 432.529 516.908C428.988 514.681 425.469 512.486 421.971 510.323C324.638 587.429 213.183 593.891 114.019 573.583H114.01ZM102.858 564.482C106.17 567.208 109.479 569.953 112.81 572.636C212.07 593.249 323.786 587.062 421.328 509.937C417.79 507.755 414.322 505.685 410.828 503.57C308.917 569.624 198.885 578.267 102.867 564.482H102.858ZM91.559 555.083C94.972 557.957 98.4004 560.812 101.844 563.646C197.9 577.64 308.097 569.206 410.167 503.166C406.746 501.099 403.263 498.932 399.885 496.93C293.347 551.974 184.57 562.564 91.5677 555.083H91.559ZM80.1815 545.392C83.6582 548.388 87.1561 551.368 90.6753 554.33C183.677 561.954 292.542 551.513 399.198 496.515C395.701 494.448 392.323 492.57 388.87 490.569C277.757 534.49 170.208 546.763 80.1902 545.392H80.1815ZM68.7431 535.371C72.2748 538.486 75.8037 541.616 79.3702 544.699C169.345 546.168 276.928 533.986 388.114 490.134C384.735 488.184 381.36 486.237 378.025 484.35C262.332 517.131 155.895 530.857 68.7518 535.374L68.7431 535.371ZM57.1801 525.065C60.7727 528.309 64.3866 531.533 68.0217 534.736C155.087 530.267 261.501 516.599 377.205 483.878C373.882 482.003 370.562 480.133 367.279 478.324C247 499.951 141.554 514.875 57.1888 525.07L57.1801 525.065ZM45.5042 514.472C49.1431 517.816 52.8314 521.145 56.5138 524.469C140.766 514.303 246.11 499.407 366.32 477.803C363.012 475.982 359.77 474.267 356.502 472.509C231.694 482.973 127.163 498.828 45.5129 514.472H45.5042ZM33.7848 503.57C37.4546 507.018 41.1602 510.466 44.9016 513.913C126.419 498.279 230.787 482.421 355.427 471.945C352.327 470.282 349.16 468.51 346.095 466.915C216.663 466.173 112.86 482.69 33.7848 503.57ZM21.9466 492.344C25.6754 495.905 29.4128 499.473 33.2053 503.031C112.121 482.155 215.701 465.604 344.823 466.219C341.636 464.556 338.573 463.07 335.424 461.484C201.559 449.6 98.4834 466.503 21.9466 492.332V492.344ZM10.0157 480.832C13.7763 484.493 17.5727 488.157 21.4048 491.826C97.7388 466.013 200.455 449.053 333.778 460.665C330.881 459.196 327.967 457.708 325.087 456.29C186.699 433.215 84.1768 450.258 10.0157 480.82V480.832ZM24.0703 505.488C20.3415 502.141 16.6678 498.791 13.0057 495.444C10.5053 496.335 8.05714 497.24 5.62055 498.15C9.25081 501.299 12.8898 504.448 16.5925 507.598C19.0493 506.876 21.5419 506.169 24.0703 505.476V505.488ZM35.6101 515.714C31.9402 512.487 28.2916 509.253 24.6642 506.015C22.1465 506.705 19.6693 507.403 17.2096 508.102C20.7906 511.14 24.4044 514.173 28.0511 517.2C30.5399 516.693 33.075 516.198 35.6101 515.703V515.714ZM47.0339 525.614C43.4182 522.508 39.8082 519.399 36.2446 516.273C33.7153 516.765 31.1946 517.26 28.7117 517.753C32.2492 520.687 35.8389 523.599 39.4315 526.513L47.0339 525.614ZM58.3159 535.208C54.7638 532.223 51.235 529.225 47.7293 526.213C45.1942 526.499 42.6591 526.817 40.1617 527.109C43.6384 529.928 47.145 532.734 50.6816 535.526C53.2138 535.417 55.7518 535.311 58.3159 535.2V535.208ZM69.4297 544.487C65.953 541.624 62.5169 538.733 59.0778 535.847C56.5379 535.961 54.0105 536.069 51.4957 536.17C54.9087 538.867 58.3246 541.561 61.7781 544.229C64.3161 544.315 66.857 544.407 69.4297 544.479V544.487ZM80.5146 553.448C77.0959 550.703 73.6684 547.954 70.2815 545.177C67.7377 545.108 65.22 545.022 62.7023 544.937C66.0515 547.515 69.4191 550.08 72.805 552.632C75.3633 552.907 77.9332 553.188 80.5146 553.44V553.448ZM91.3736 562.037C88.0591 559.441 84.7562 556.831 81.465 554.207C78.9009 553.961 76.3716 553.683 73.8365 553.408C77.1249 555.879 80.4509 558.307 83.7712 560.74C86.2918 561.181 88.8259 561.613 91.3736 562.037ZM101.963 570.277C98.7934 567.858 95.6528 565.381 92.5064 562.925C89.9887 562.518 87.4883 562.086 84.9938 561.645C88.1808 563.972 91.3774 566.28 94.5837 568.57C97.029 569.154 99.5004 569.704 101.963 570.277ZM112.541 578.201C109.464 575.911 106.384 573.621 103.325 571.296C100.906 570.752 98.4834 570.202 96.0816 569.624C99.1121 571.774 102.146 573.918 105.196 576.037C107.633 576.773 110.093 577.48 112.541 578.193V578.201ZM122.841 585.737C119.926 583.627 117.014 581.511 114.114 579.364C111.767 578.691 109.412 578.044 107.08 577.34C109.977 579.344 112.894 581.256 115.806 583.209C118.153 584.07 120.498 584.912 122.841 585.737ZM132.781 592.866C130.13 590.999 127.491 589.075 124.848 587.174C122.676 586.421 120.503 585.685 118.333 584.907C120.925 586.636 123.523 588.345 126.129 590.034C128.345 590.987 130.565 591.964 132.79 592.877L132.781 592.866ZM142.252 599.382C139.934 597.804 137.617 596.255 135.325 594.649C133.486 593.907 131.651 593.155 129.82 592.393C131.993 593.787 134.166 595.188 136.339 596.559C138.298 597.506 140.268 598.46 142.252 599.382ZM149.913 604.615C148.626 603.756 147.346 602.852 146.062 601.984C144.7 601.363 143.345 600.71 141.989 600.066C143.637 601.085 145.294 602.056 146.943 603.061C147.928 603.587 148.916 604.097 149.907 604.615H149.913ZM502.17 563.271C438.5 711.378 319.677 701.06 199.986 635.18C326.558 713.886 452.381 733.412 513.295 571.05C509.543 568.399 505.873 565.868 502.164 563.271H502.17ZM507.385 550.728C505.783 554.842 504.099 558.719 502.428 562.63C506.125 565.206 509.787 567.746 513.518 570.385C515.089 566.171 516.65 561.917 518.154 557.465C514.518 555.155 510.983 552.993 507.388 550.728H507.385ZM512.105 537.444C510.636 541.713 509.207 546.059 507.649 550.093C511.235 552.352 514.758 554.508 518.368 556.809C519.817 552.443 521.159 547.808 522.512 543.187C519.023 541.235 515.576 539.357 512.107 537.444H512.105ZM516.74 523.67C515.323 528.203 513.814 532.471 512.322 536.794C515.799 538.701 519.22 540.571 522.709 542.52C524.079 537.842 525.493 533.279 526.765 528.369C523.433 526.785 520.078 525.211 516.749 523.67H516.74ZM520.877 509.195C519.588 513.87 518.302 518.566 516.929 523.012C520.249 524.548 523.585 526.108 526.939 527.69C528.176 522.895 529.303 517.79 530.447 512.742C527.266 511.56 524.053 510.346 520.886 509.195H520.877ZM524.85 494.176C523.633 499.086 522.361 503.853 521.066 508.543C524.221 509.688 527.44 510.902 530.604 512.078C531.762 506.985 532.921 501.869 533.979 496.535C530.951 495.757 527.877 494.929 524.858 494.176H524.85ZM528.489 478.576C527.366 483.666 526.207 488.647 525.012 493.518C528.016 494.268 531.096 495.092 534.112 495.868C535.161 490.587 536.162 485.18 537.117 479.647C534.251 479.294 531.354 478.914 528.497 478.576H528.489ZM531.794 462.374C530.775 467.636 529.746 472.879 528.642 477.914C531.487 478.252 534.373 478.633 537.232 478.985C538.177 473.503 539.061 467.854 539.912 462.122C537.215 462.208 534.497 462.286 531.803 462.374H531.794ZM534.941 445.557C533.99 451.086 532.95 456.379 531.922 461.696C534.605 461.607 537.314 461.53 540.008 461.447C540.86 455.684 541.729 449.955 542.494 443.957L534.941 445.557ZM537.6 428.19C536.778 433.787 535.987 439.476 535.077 444.839L542.592 443.244C543.325 437.418 543.943 431.291 544.577 425.207C542.259 426.206 539.933 427.208 537.609 428.19H537.6ZM540.24 410.105C539.466 416.057 538.565 421.663 537.713 427.406C540.031 426.427 542.349 425.431 544.667 424.443C545.319 418.227 546.04 412.195 546.605 405.753C544.486 407.215 542.367 408.666 540.249 410.105H540.24ZM542.268 391.665C541.639 397.554 541.06 403.572 540.341 409.217C542.45 407.784 544.559 406.34 546.666 404.886C547.187 398.785 547.564 392.306 547.984 385.944C546.082 387.872 544.177 389.779 542.271 391.665H542.268ZM544.296 372.385C543.717 378.607 543.05 384.567 542.398 390.588C544.29 388.704 546.182 386.832 548.068 384.914C548.503 378.418 548.992 372.062 549.34 365.34C547.663 367.745 545.971 370.046 544.287 372.385H544.296ZM545.8 352.863C545.356 358.995 544.93 365.174 544.397 371.074C545.907 368.978 547.428 366.92 548.92 364.753L548.937 364.73L548.964 364.704L549.381 364.295C549.696 357.996 549.908 351.437 550.134 344.912L549.499 345.806C548.277 348.222 547.028 350.521 545.791 352.863H545.8ZM547.205 332.45C546.828 338.806 546.382 344.978 545.933 351.142C546.924 349.267 547.923 347.42 548.897 345.485V345.465L548.917 345.439C549.338 344.851 549.756 344.263 550.172 343.676C550.403 337.108 550.67 330.635 550.823 323.878L549.508 326.455C548.755 328.513 547.97 330.469 547.196 332.45H547.205ZM548.181 311.911C547.915 318.103 547.651 324.299 547.312 330.291C547.842 328.943 548.375 327.609 548.888 326.209V326.189V326.171C549.543 324.894 550.194 323.618 550.841 322.344C550.974 316.005 551.015 309.437 551.061 302.875L549.52 307.11C549.085 308.756 548.627 310.319 548.173 311.911H548.181ZM548.99 290.51C548.807 296.731 548.578 302.841 548.323 308.879C548.509 308.235 548.697 307.596 548.874 306.926V306.912C549.615 304.879 550.352 302.852 551.084 300.831C551.128 294.295 551.218 287.87 551.2 281.18C550.644 283.378 550.086 285.584 549.526 287.796C549.352 288.718 549.166 289.611 548.981 290.51H548.99ZM549.43 269.273C549.326 275.179 549.227 281.1 549.068 286.851C549.773 284.065 550.475 281.288 551.174 278.52C551.139 272.534 551.029 266.347 550.919 260.166L549.543 268.428C549.5 268.717 549.456 268.986 549.421 269.273H549.43ZM549.682 247.686C549.682 253.343 549.615 258.883 549.531 264.348L550.867 256.332C550.757 250.303 550.731 244.482 550.577 238.373L549.682 247.686ZM549.61 228.166C549.61 232.395 549.668 236.726 549.656 240.909L550.401 233.242C550.282 229.025 550.111 224.653 549.928 220.302L549.61 228.166ZM549.546 210.45C549.546 211.226 549.546 211.939 549.546 212.709L549.598 211.435C549.575 210.834 549.555 210.244 549.531 209.64L549.546 210.45ZM549.001 247.651C549.001 247.025 549.001 246.355 549.001 245.719C548.966 246.764 548.929 247.786 548.894 248.825L549.001 247.651ZM548.746 269.227C548.827 264.646 548.978 260.229 549.036 255.562C548.833 258.399 548.581 261.099 548.37 263.91C548.209 268.05 548.028 272.135 547.825 276.164C548.123 273.868 548.448 271.606 548.737 269.227H548.746ZM548.309 290.453C548.456 285.531 548.532 280.412 548.619 275.328C548.184 278.821 547.706 282.199 547.242 285.635C546.953 290.502 546.663 295.446 546.356 300.256C546.999 297.009 547.674 293.797 548.3 290.453H548.309ZM547.495 311.828C547.752 306.03 548.028 300.284 548.225 294.341C547.524 298.043 546.776 301.641 546.049 305.257C545.655 310.811 545.18 316.188 544.748 321.602C545.661 318.364 546.591 315.146 547.486 311.828H547.495ZM546.521 332.327C546.854 326.655 547.101 320.737 547.35 314.863C546.388 318.387 545.403 321.845 544.415 325.301C543.951 330.786 543.485 336.26 542.966 341.571C544.142 338.505 545.339 335.45 546.512 332.327H546.521ZM545.116 352.7C545.565 346.67 546.037 340.695 546.42 334.488C545.203 337.701 543.975 340.882 542.737 344.033C542.14 349.791 541.46 355.319 540.805 360.925C542.242 358.203 543.676 355.459 545.107 352.691L545.116 352.7ZM543.615 372.168C544.14 366.442 544.545 360.387 544.983 354.417C543.517 357.237 542.051 360.052 540.576 362.829C539.936 368.34 539.304 373.88 538.588 379.185C540.263 376.872 541.935 374.518 543.606 372.159L543.615 372.168ZM541.587 391.384C542.236 385.443 542.923 379.609 543.499 373.476C541.801 375.852 540.109 378.252 538.403 380.596C537.621 386.248 536.728 391.61 535.882 397.096C537.795 395.215 539.692 393.285 541.593 391.384H541.587ZM539.573 409.744C540.283 404.193 540.848 398.252 541.468 392.463C539.547 394.382 537.632 396.34 535.706 398.232C534.891 403.557 534.115 408.983 533.223 414.09C535.346 412.667 537.461 411.187 539.579 409.744H539.573ZM536.946 427.735C537.789 422.072 538.684 416.515 539.443 410.652C537.317 412.1 535.19 413.584 533.069 415.009C532.11 420.397 531.041 425.465 530.007 430.678C532.316 429.705 534.634 428.717 536.951 427.735H536.946ZM534.303 445.002C535.21 439.685 536.007 434.068 536.83 428.522C534.512 429.507 532.168 430.501 529.842 431.471C528.845 436.562 527.869 441.704 526.794 446.585L534.303 445.002ZM531.174 461.719C532.2 456.456 533.223 451.194 534.17 445.723L526.62 447.312C525.499 452.345 524.302 457.146 523.105 461.996C525.792 461.903 528.484 461.81 531.18 461.719H531.174ZM527.898 477.82C528.998 472.816 530.03 467.625 531.047 462.397C528.343 462.485 525.639 462.58 522.935 462.683C521.758 467.485 520.567 472.254 519.319 476.855C522.181 477.167 525.026 477.479 527.903 477.82H527.898ZM524.276 493.34C525.473 488.502 526.632 483.549 527.753 478.481C524.855 478.138 522.005 477.826 519.142 477.508C517.867 482.163 516.534 486.687 515.202 491.15C518.221 491.874 521.214 492.579 524.282 493.34H524.276ZM520.339 508.285C521.634 503.615 522.906 498.886 524.122 493.999C521.054 493.234 518.038 492.527 515.005 491.8C513.649 496.278 512.249 500.629 510.827 504.909C513.999 506.032 517.157 507.125 520.344 508.285H520.339ZM516.219 522.686C517.589 518.265 518.864 513.584 520.153 508.943C516.943 507.778 513.779 506.679 510.607 505.554C509.184 509.828 507.75 514.079 506.261 518.151C509.584 519.659 512.881 521.14 516.224 522.686H516.219ZM511.615 536.408C513.104 532.113 514.616 527.859 516.03 523.344C512.675 521.792 509.367 520.309 506.035 518.789C504.505 522.923 502.897 526.834 501.304 530.782C504.74 532.646 508.176 534.507 511.621 536.408H511.615ZM506.945 549.663C508.489 545.655 509.929 541.324 511.398 537.066C507.921 535.16 504.493 533.293 501.052 531.423C499.484 535.323 497.949 539.314 496.309 543.001C499.838 545.189 503.383 547.409 506.945 549.663ZM501.729 562.16C503.398 558.267 505.076 554.396 506.672 550.299C503.112 548.056 499.56 545.831 496.016 543.622C494.313 547.393 492.516 550.889 490.752 554.485C494.391 556.984 498.079 559.589 501.735 562.146L501.729 562.16ZM187.296 627.07C310.916 699.022 435.652 715.535 501.469 562.787C497.801 560.211 494.104 557.608 490.459 555.086C421.168 695.658 300.979 685.597 182.579 624.009C184.15 625.042 185.711 626.045 187.296 627.07ZM162.411 611.841C163.654 612.637 164.894 613.47 166.137 614.255C167.586 615.071 169.035 615.933 170.506 616.734C168.922 615.646 167.337 614.561 165.755 613.465C164.639 612.935 163.527 612.394 162.411 611.841ZM149.753 603.61C152.132 605.196 154.519 606.728 156.904 608.274C158.529 609.101 160.157 609.906 161.789 610.702C159.685 609.21 157.585 607.647 155.481 606.121C153.572 605.294 151.66 604.466 149.753 603.61ZM138.416 595.863C141.082 597.705 143.752 599.53 146.427 601.337C148.493 602.279 150.567 603.169 152.639 604.071C150.031 602.179 147.424 600.306 144.816 598.371C142.68 597.541 140.547 596.705 138.416 595.863ZM127.262 588.007C130.087 590.011 132.903 592.058 135.736 594.019C138.054 594.953 140.372 595.849 142.69 596.748C139.903 594.666 137.121 592.536 134.346 590.415C131.976 589.648 129.623 588.812 127.262 588.007ZM116.087 579.942C119.132 582.184 122.197 584.374 125.257 586.57C127.685 587.409 130.116 588.248 132.549 589.064C129.507 586.727 126.474 584.368 123.449 581.986C120.989 581.328 118.538 580.635 116.087 579.942ZM105.078 571.694C108.212 574.066 111.356 576.422 114.508 578.76C117.035 579.484 119.552 580.22 122.09 580.91C118.866 578.373 115.632 575.842 112.428 573.26C109.971 572.754 107.521 572.237 105.078 571.708V571.694ZM94.0014 563.174C97.2318 565.685 100.462 568.201 103.716 570.672C106.227 571.244 108.738 571.793 111.249 572.318C107.972 569.673 104.727 566.961 101.473 564.276C98.9789 563.918 96.4756 563.566 94.0014 563.174ZM82.7339 554.319C86.0948 556.998 89.4846 559.649 92.8744 562.292C95.3892 562.698 97.9272 563.071 100.465 563.437C97.0792 560.637 93.7039 557.815 90.3392 554.971C87.7839 554.768 85.2517 554.553 82.7339 554.319ZM71.4491 545.194C74.8795 548 78.3291 550.789 81.7981 553.56C84.3303 553.8 86.8915 554.012 89.4527 554.224C85.976 551.284 82.4993 548.341 79.0515 545.363C76.5019 545.32 73.9726 545.257 71.4491 545.194ZM60.1238 535.789C63.6005 538.704 67.0772 541.621 70.5973 544.504C73.1353 544.573 75.6869 544.63 78.2519 544.676C74.723 541.618 71.2318 538.518 67.7348 535.432C65.1853 535.56 62.6531 535.675 60.1238 535.789ZM48.6709 526.093C52.2113 529.123 55.774 532.143 59.3589 535.151C61.9027 535.036 64.4378 534.925 67.0134 534.796C63.4073 531.607 59.8224 528.402 56.2588 525.182C53.7112 525.491 51.1819 525.795 48.6709 526.093ZM37.1021 516.095C40.6918 519.244 44.3453 522.371 47.9785 525.494L55.5953 524.584C51.9332 521.274 48.2711 517.962 44.6553 514.635C42.1202 515.122 39.5967 515.608 37.105 516.095H37.1021ZM25.4639 505.788C29.1028 509.043 32.7727 512.294 36.4734 515.542C38.9747 515.056 41.5002 514.567 44.0498 514.077C40.3355 510.656 36.6473 507.221 32.9851 503.77C30.4587 504.428 27.9352 505.101 25.4668 505.777L25.4639 505.788ZM13.7531 495.195C17.4298 498.554 21.1209 501.918 24.8699 505.273C27.3442 504.594 29.8706 503.927 32.4028 503.269C28.6364 499.725 24.9105 496.172 21.202 492.624C18.693 493.451 16.211 494.3 13.756 495.172L13.7531 495.195ZM1.94103 484.273C5.65532 487.735 9.40726 491.199 13.1969 494.663C15.6557 493.789 18.1444 492.925 20.6631 492.072C16.8426 488.413 13.0578 484.756 9.30876 481.101C6.81132 482.14 4.38052 483.208 1.94103 484.273ZM-0.00302698 409.22C66.8802 380.591 161.615 381.18 295.871 441.643C301.829 443.871 307.864 446.207 313.976 448.652C320.587 450.776 327.303 453.058 334.112 455.434C340.529 457.132 347.001 458.907 353.578 460.811C359.587 462.008 365.664 463.284 371.808 464.639C378.182 465.423 384.623 466.269 391.133 467.175C396.89 467.378 402.695 467.616 408.548 467.891C414.342 467.496 420.184 467.114 426.073 466.746C431.64 465.683 437.232 464.608 442.849 463.522C448.089 461.751 453.343 459.938 458.613 458.083C463.698 455.454 468.784 452.754 473.869 449.98C478.48 446.568 483.076 443.053 487.658 439.436C492.121 434.874 496.557 430.174 500.965 425.336C504.764 420.051 508.519 414.6 512.229 408.983C515.99 401.902 519.679 394.581 523.297 387.021C526.043 379.863 528.706 372.42 531.313 364.844C534.054 354.824 536.662 344.423 539.171 333.735C540.842 324.482 542.404 314.923 543.879 305.131C545.327 291.856 546.559 278.008 547.674 263.853C548.181 252.785 548.593 241.47 548.853 229.767L548.92 228.158C548.92 222.297 548.946 216.545 548.853 210.473L548.694 187.795C547.393 160.234 546.11 133.339 544.867 107.28C542.885 65.6868 541.02 26.2074 539.272 -11.1582H539.956C541.694 26.2513 543.559 65.7202 545.551 107.249C546.534 127.862 547.541 149.035 548.572 170.766L548.352 140.605C547.952 86.3995 547.628 35.8117 547.379 -11.1582H548.06C548.264 35.8747 548.589 86.4615 549.033 140.602C549.147 156.024 549.261 171.746 549.375 187.767L549.537 191.148C549.72 195.07 549.801 198.729 549.954 202.571C550.611 186.147 551.255 170.05 551.887 154.279C554.274 94.5713 556.476 39.5336 558.75 -11.1582H559.431C557.157 39.5365 554.955 94.5828 552.568 154.322C551.826 172.917 551.063 191.966 550.279 211.466C550.496 217.072 550.734 222.721 550.89 228.166C553.532 200.907 556.069 174.557 558.501 149.117C564.064 91.1329 569.183 37.7958 574.21 -11.1438H574.894C569.867 37.8129 564.754 91.1673 559.179 149.182C556.589 176.207 553.885 204.245 551.067 233.297C551.249 239.827 551.357 246.206 551.481 252.559C558.736 208.875 565.496 167.539 571.762 128.549C579.924 78.2696 587.477 31.7549 594.786 -11.141H595.479C588.16 31.7778 580.604 78.3297 572.434 128.655C565.913 168.83 558.942 211.412 551.519 256.401C551.635 262.986 551.756 269.596 551.791 275.981C567.897 212.145 582.056 153.142 595.094 98.8887C604.492 59.7347 613.297 23.0744 621.806 -11.1753H622.513C613.99 23.1145 605.173 59.8263 595.76 99.049C582.572 153.987 568.216 213.791 551.861 278.597C551.89 285.468 551.861 292.182 551.806 298.859C582.493 214.16 607.694 137.232 630.24 68.4124C639.37 40.5471 648.064 14.0159 656.51 -11.1782H657.228C648.759 14.0675 640.045 40.673 630.892 68.6128C608.183 137.931 582.777 215.483 551.797 300.914C551.751 307.665 551.71 314.436 551.574 320.955C603.307 219.191 642.284 126.23 676.449 44.7471C684.538 25.4506 692.393 6.80984 700.015 -11.1753H700.757C693.065 6.87855 685.175 25.6062 677.086 45.0076C642.782 126.828 603.626 220.221 551.539 322.495C551.386 329.346 551.154 336 550.919 342.642C629.901 231.814 683.709 125.197 730.508 32.4621C738.041 17.5441 745.414 2.99827 752.626 -11.1753H753.391C746.098 3.07653 738.674 17.7225 731.12 32.7627C684.184 125.746 630.226 232.69 550.87 343.879C550.638 350.507 550.429 357.192 550.105 363.576C660.969 254.543 728.898 135.861 788.26 32.1528C796.718 17.3761 805.032 2.93338 813.202 -11.1753H813.99C805.717 3.02499 797.339 17.5784 788.854 32.485C729.387 136.394 661.316 255.33 550.079 364.569C549.728 371.26 549.273 377.682 548.839 384.152L548.969 384.023L548.995 383.995L549.027 383.975C694.82 288.011 775.228 157.325 846.318 41.7724C857.446 23.6813 868.337 5.9853 879.239 -11.1753H880.045C869.081 6.09123 858.107 23.9104 846.9 42.1246C775.778 157.723 695.339 288.475 549.413 384.519C549.192 384.745 548.969 384.962 548.746 385.183C548.32 391.627 547.941 398.195 547.413 404.365C547.941 404.007 548.471 403.652 548.995 403.28L549.03 403.257L549.065 403.242C730.703 330.331 821.488 186.942 902.82 58.495C917.97 34.5663 932.792 11.1558 947.814 -11.1868H948.634C933.534 11.2589 918.633 34.7925 903.399 58.85C822.021 187.38 731.181 330.858 549.355 403.855C548.688 404.325 548.019 404.774 547.35 405.227C546.77 411.72 546.075 417.849 545.42 424.122C546.631 423.607 547.839 423.097 549.056 422.568H549.088H549.129C767.402 380.628 866.932 222.712 956.961 79.8499C976.845 48.3029 996.268 17.4859 1016.41 -11.1925H1017.24C997.024 17.5947 977.532 48.5348 957.54 80.2193C867.436 223.182 767.825 381.215 549.288 423.203C547.964 423.776 546.649 424.348 545.33 424.892C544.693 431.01 544.093 437.226 543.354 443.084C545.272 442.677 547.185 442.273 549.111 441.861H549.178C804.56 437.252 911.489 262.679 1008.68 104.016C1033.46 63.5654 1057.61 24.1394 1083.42 -11.1668H1084.26C1058.35 24.2253 1034.14 63.7744 1009.27 104.366C911.999 263.169 804.974 437.902 549.245 442.534L543.27 443.802C542.497 449.846 541.628 455.626 540.767 461.432C543.569 461.344 546.365 461.252 549.187 461.172H549.242C842.094 498.903 955.312 305.38 1058.11 129.666C1087.57 79.306 1116.18 30.4093 1147.93 -11.1782H1148.79C1116.95 30.4666 1088.26 79.4978 1058.72 130.006C955.817 305.893 842.482 499.616 549.198 461.825C546.341 461.905 543.517 461.996 540.683 462.085C539.814 467.843 538.945 473.56 538.009 479.063C541.749 479.523 545.475 479.97 549.256 480.463H549.276H549.297C879.969 564.634 998.551 349.797 1105.54 155.956C1139.29 94.8118 1171.89 35.7545 1209.63 -11.1982H1210.5C1172.65 35.7774 1139.97 94.9779 1106.14 156.286C999.026 350.341 880.314 565.404 549.146 481.127C545.359 480.631 541.628 480.185 537.881 479.724C536.917 485.281 535.914 490.732 534.857 496.043C539.655 497.271 544.418 498.482 549.294 499.782H549.311C918.193 633.815 1041.31 395.243 1151.18 182.344C1188.75 109.545 1224.77 39.7512 1268.54 -11.1725H1269.44C1225.55 39.7254 1189.45 109.679 1151.79 182.651C1041.79 395.802 918.529 634.651 549.094 500.44C544.255 499.143 539.498 497.941 534.721 496.718C533.649 502.069 532.51 507.24 531.348 512.35C537.302 514.555 543.262 516.768 549.311 519.113H549.329C956.874 705.904 1083.77 441.094 1195.31 208.331C1236.26 122.898 1275.13 41.7724 1325.05 -11.1753H1325.99C1275.93 41.6951 1236.97 122.986 1195.93 208.618C1084.25 441.664 957.199 706.792 549.065 519.748C543.042 517.415 537.114 515.213 531.192 513.017C530.033 518.091 528.912 523.221 527.669 528.036C534.825 531.403 542.03 534.842 549.346 538.443H549.36C896.988 726.881 1052.77 590.87 1157.59 401.914C1187.48 348.027 1213.23 289.84 1238.11 233.634C1282.08 134.269 1323.31 41.1082 1379.84 -11.1753H1380.83C1324.13 40.9307 1282.81 134.295 1238.72 233.895C1213.85 290.115 1188.09 348.322 1158.18 402.238C1053.19 591.506 897.167 727.757 549.033 539.047C541.767 535.472 534.61 532.056 527.501 528.709C526.208 533.636 524.8 538.24 523.427 542.93C531.957 547.701 540.601 552.647 549.36 557.766C889.982 767.719 1056.92 671.291 1164.71 500.42C1210.89 427.208 1246.23 340.326 1279.71 258.01C1325.98 144.261 1368.7 39.2244 1431.63 -9.10541C1432.56 -9.81829 1433.5 -10.4968 1434.43 -11.1839H1435.59C1434.41 -10.325 1433.23 -9.46615 1432.07 -8.5729C1369.28 39.6424 1326.59 144.596 1280.36 258.256C1246.87 340.601 1211.52 427.512 1165.31 500.772C1057.32 671.952 890.11 768.575 549.027 558.335C540.32 553.239 531.725 548.324 523.242 543.591C521.889 548.22 520.547 552.887 519.101 557.262C529.025 563.592 539.145 570.237 549.386 577.079C892.781 811.556 1069.19 740.526 1180.89 580.684C1240.61 495.23 1281.86 384.381 1320.25 281.251C1360.26 173.755 1397.15 74.6336 1448.63 21.2993V22.2699C1397.51 75.6185 1360.75 174.394 1320.89 281.495C1282.49 384.662 1241.23 495.547 1181.46 581.079C1069.54 741.225 892.848 812.441 549.004 577.643C538.811 570.832 528.744 564.224 518.873 557.92C517.38 562.386 515.816 566.649 514.237 570.881C525.741 579.029 537.462 587.537 549.401 596.404C900.175 856.9 1085.64 805.169 1201.55 652.642C1273.39 558.118 1318.56 424.875 1359.8 303.213C1388.72 217.897 1415.72 138.306 1448.63 81.6679V83.0278C1416.02 139.523 1389.19 218.661 1360.45 303.428C1319.19 425.138 1274 558.436 1202.1 653.048C1085.95 805.873 900.207 857.75 548.99 596.934C537.115 588.116 525.45 579.648 513.996 571.531C450.868 740.014 318.142 713.408 186.934 627.748C179.872 623.631 172.822 619.351 165.784 614.908C159.358 611.3 152.946 607.558 146.549 603.682C139.596 599.992 132.677 596.164 125.793 592.196C119.321 588.951 112.885 585.577 106.486 582.075C99.6443 578.876 92.856 575.569 86.1208 572.155C79.6252 569.374 73.1923 566.496 66.8222 563.52C60.1083 560.963 53.4784 558.304 46.9325 555.544C40.3326 553.362 33.8051 551.112 27.4079 548.776C20.9934 547.037 14.6957 545.23 8.51491 543.356C5.64469 542.784 2.80345 542.194 -0.00882149 541.587V540.897L1.6542 541.243L-0.00302698 540.719V539.8C1.86281 540.001 3.74313 540.193 5.62634 540.373C3.73444 539.609 1.85991 538.839 -0.00302698 538.065V537.353C2.67983 538.46 5.38394 539.558 8.10929 540.648C10.4271 540.874 12.7768 541.083 15.1322 541.289C12.3016 539.938 9.50577 538.569 6.7302 537.198C4.46454 537.198 2.22786 537.215 -0.00302698 537.218V536.548C1.77589 536.548 3.57219 536.548 5.37139 536.528C3.56929 535.639 1.77782 534.744 -0.00302698 533.845V533.084C2.28581 534.229 4.58913 535.374 6.90693 536.519C9.34932 536.519 11.8323 536.477 14.3268 536.445C11.1862 534.674 8.07259 532.891 4.98605 531.097L-0.00302698 531.627V530.951L4.00967 530.51C2.66921 529.728 1.33164 528.949 -0.00302698 528.174V527.387C1.71022 528.391 3.42829 529.394 5.15119 530.398C7.62255 530.112 10.1287 529.849 12.6493 529.565C9.31165 527.404 5.9856 525.239 2.7117 523.061L-0.00302698 523.633V522.946L1.93234 522.537L-0.00302698 521.245V520.424L2.87105 522.339C5.33372 521.824 7.8244 521.306 10.3431 520.785C6.86637 518.262 3.38966 515.737 -0.00302698 513.203V512.345L0.104172 512.425C2.54366 511.675 5.01889 510.934 7.52984 510.203C4.99764 508.178 2.48668 506.151 -0.00302698 504.122V503.226C2.75516 505.473 5.52494 507.721 8.33528 509.963C10.7922 509.238 13.2606 508.531 15.7754 507.801C12.0988 504.675 8.48594 501.54 4.87595 498.413C3.23804 499.026 1.61171 499.642 -0.00302698 500.26V499.561C1.42242 499.014 2.85753 498.47 4.3023 497.93C2.85946 496.668 1.42436 495.411 -0.00302698 494.159V493.234C1.67159 494.702 3.35489 496.171 5.04689 497.64C7.48928 496.73 9.94036 495.817 12.4465 494.923C8.67233 491.471 4.93969 488.021 1.24859 484.574L-0.00302698 485.126V484.388L0.712596 484.07L-0.00302698 483.408V482.461L1.40794 483.775C3.84743 482.707 6.28402 481.633 8.78725 480.591C5.83398 477.715 2.90389 474.842 -0.00302698 471.971V470.998C3.13181 474.095 6.29754 477.2 9.49418 480.311C83.3887 449.786 185.421 432.665 323.041 455.245C320.297 453.897 317.583 452.591 314.868 451.292C173.267 417.368 71.7765 433.687 -0.00302698 468.069V467.304C71.3187 433.198 171.862 416.916 311.768 449.84C309.326 448.695 306.906 447.55 304.49 446.439C166.87 404.104 69.0879 415.805 -0.0117188 449.56V448.752C68.3925 415.422 164.784 403.652 299.95 444.306C298.519 443.65 297.032 442.918 295.604 442.276C161.8 392.286 67.0279 398.464 -0.00302698 430.054V429.195C65.0346 398.613 156.066 391.874 283.43 437.023C155.681 382.005 64.7362 382.34 -0.00302698 410.131V409.22Z" fill="#475569"/>
</svg>
